<mxfile host="app.diagrams.net" modified="2023-12-13T10:20:12.421Z" agent="Mozilla/5.0 (Windows NT 10.0; Win64; x64; rv:108.0) Gecko/20100101 Firefox/108.0" etag="L087rFakAQ6G12186-A2" version="22.1.8" type="device">
  <diagram name="Page-1" id="b5b7bab2-c9e2-2cf4-8b2a-24fd1a2a6d21">
    <mxGraphModel dx="1235" dy="615" grid="1" gridSize="10" guides="1" tooltips="1" connect="1" arrows="1" fold="1" page="1" pageScale="1" pageWidth="827" pageHeight="1169" background="#ffffff" math="0" shadow="0">
      <root>
        <mxCell id="0" />
        <mxCell id="1" parent="0" />
        <mxCell id="pf1ZcJ0mMMWe8gu6RdFf-15" value="" style="rounded=0;whiteSpace=wrap;html=1;" vertex="1" parent="1">
          <mxGeometry x="320" y="390" width="400" height="610" as="geometry" />
        </mxCell>
        <mxCell id="6e0c8c40b5770093-44" value="/sort/{type}" style="shape=folder;fontStyle=1;spacingTop=10;tabWidth=50;tabHeight=17;tabPosition=left;html=1;rounded=0;shadow=0;comic=0;labelBackgroundColor=none;strokeColor=#000000;strokeWidth=1;fillColor=#ffffff;fontFamily=Verdana;fontSize=10;fontColor=#000000;align=center;" parent="1" vertex="1">
          <mxGeometry x="350" y="700" width="112" height="75.5" as="geometry" />
        </mxCell>
        <mxCell id="6e0c8c40b5770093-45" value="/manga/{route}" style="shape=folder;fontStyle=1;spacingTop=10;tabWidth=50;tabHeight=17;tabPosition=left;html=1;rounded=0;shadow=0;comic=0;labelBackgroundColor=none;strokeColor=#000000;strokeWidth=1;fillColor=#ffffff;fontFamily=Verdana;fontSize=10;fontColor=#000000;align=center;" parent="1" vertex="1">
          <mxGeometry x="350" y="410" width="112" height="70" as="geometry" />
        </mxCell>
        <mxCell id="pf1ZcJ0mMMWe8gu6RdFf-3" value="Backend" style="shape=umlFrame;whiteSpace=wrap;html=1;pointerEvents=0;" vertex="1" parent="1">
          <mxGeometry x="320" y="390" width="400" height="610" as="geometry" />
        </mxCell>
        <mxCell id="pf1ZcJ0mMMWe8gu6RdFf-10" value="&lt;p style=&quot;margin:0px;margin-top:4px;text-align:center;&quot;&gt;&lt;b&gt;Server&lt;/b&gt;&lt;br&gt;&lt;/p&gt;&lt;hr size=&quot;1&quot;&gt;&lt;p style=&quot;margin:0px;margin-left:4px;&quot;&gt;&lt;br&gt;&lt;/p&gt;" style="verticalAlign=top;align=left;overflow=fill;fontSize=12;fontFamily=Helvetica;html=1;whiteSpace=wrap;" vertex="1" parent="1">
          <mxGeometry x="580" y="675" width="120" height="50" as="geometry" />
        </mxCell>
        <mxCell id="pf1ZcJ0mMMWe8gu6RdFf-12" value="&lt;p style=&quot;margin:0px;margin-top:4px;text-align:center;&quot;&gt;&lt;b&gt;Front&lt;/b&gt;&lt;br&gt;&lt;/p&gt;&lt;hr size=&quot;1&quot;&gt;&lt;p style=&quot;margin:0px;margin-left:4px;&quot;&gt;&lt;br&gt;&lt;/p&gt;" style="verticalAlign=top;align=left;overflow=fill;fontSize=12;fontFamily=Helvetica;html=1;whiteSpace=wrap;" vertex="1" parent="1">
          <mxGeometry x="80" y="676" width="120" height="50" as="geometry" />
        </mxCell>
        <mxCell id="pf1ZcJ0mMMWe8gu6RdFf-16" value="" style="endArrow=classic;html=1;rounded=0;edgeStyle=orthogonalEdgeStyle;entryX=0.004;entryY=0.507;entryDx=0;entryDy=0;entryPerimeter=0;exitX=1;exitY=0.5;exitDx=0;exitDy=0;" edge="1" parent="1" source="pf1ZcJ0mMMWe8gu6RdFf-12" target="pf1ZcJ0mMMWe8gu6RdFf-3">
          <mxGeometry relative="1" as="geometry">
            <mxPoint x="420" y="570" as="sourcePoint" />
            <mxPoint x="520" y="570" as="targetPoint" />
          </mxGeometry>
        </mxCell>
        <mxCell id="pf1ZcJ0mMMWe8gu6RdFf-17" value="" style="shape=message;html=1;outlineConnect=0;" vertex="1" parent="pf1ZcJ0mMMWe8gu6RdFf-16">
          <mxGeometry width="20" height="14" relative="1" as="geometry">
            <mxPoint x="-10" y="-7" as="offset" />
          </mxGeometry>
        </mxCell>
        <mxCell id="pf1ZcJ0mMMWe8gu6RdFf-21" value="" style="endArrow=open;endSize=12;dashed=1;html=1;rounded=0;edgeStyle=orthogonalEdgeStyle;entryX=0;entryY=0;entryDx=112;entryDy=43.5;entryPerimeter=0;" edge="1" parent="1" source="pf1ZcJ0mMMWe8gu6RdFf-10" target="6e0c8c40b5770093-45">
          <mxGeometry width="160" relative="1" as="geometry">
            <mxPoint x="450" y="280" as="sourcePoint" />
            <mxPoint x="610" y="280" as="targetPoint" />
            <mxPoint as="offset" />
          </mxGeometry>
        </mxCell>
        <mxCell id="pf1ZcJ0mMMWe8gu6RdFf-22" value="" style="endArrow=open;endSize=12;dashed=1;html=1;rounded=0;edgeStyle=orthogonalEdgeStyle;entryX=0;entryY=0;entryDx=112;entryDy=46.25;entryPerimeter=0;exitX=0;exitY=0.5;exitDx=0;exitDy=0;" edge="1" parent="1" source="pf1ZcJ0mMMWe8gu6RdFf-10" target="pf1ZcJ0mMMWe8gu6RdFf-27">
          <mxGeometry width="160" relative="1" as="geometry">
            <mxPoint x="580" y="600" as="sourcePoint" />
            <mxPoint x="462" y="546.25" as="targetPoint" />
            <mxPoint as="offset" />
          </mxGeometry>
        </mxCell>
        <mxCell id="pf1ZcJ0mMMWe8gu6RdFf-23" value="" style="endArrow=open;endSize=12;dashed=1;html=1;rounded=0;edgeStyle=orthogonalEdgeStyle;entryX=0;entryY=0;entryDx=112;entryDy=46.25;entryPerimeter=0;exitX=0;exitY=0.5;exitDx=0;exitDy=0;" edge="1" parent="1" source="pf1ZcJ0mMMWe8gu6RdFf-10" target="pf1ZcJ0mMMWe8gu6RdFf-28">
          <mxGeometry width="160" relative="1" as="geometry">
            <mxPoint x="590" y="610" as="sourcePoint" />
            <mxPoint x="462" y="646.25" as="targetPoint" />
            <mxPoint as="offset" />
          </mxGeometry>
        </mxCell>
        <mxCell id="pf1ZcJ0mMMWe8gu6RdFf-24" value="" style="endArrow=open;endSize=12;dashed=1;html=1;rounded=0;edgeStyle=orthogonalEdgeStyle;entryX=0;entryY=0;entryDx=112;entryDy=46.25;entryPerimeter=0;exitX=0;exitY=0.5;exitDx=0;exitDy=0;" edge="1" parent="1" source="pf1ZcJ0mMMWe8gu6RdFf-10" target="6e0c8c40b5770093-44">
          <mxGeometry width="160" relative="1" as="geometry">
            <mxPoint x="600" y="620" as="sourcePoint" />
            <mxPoint x="482" y="566" as="targetPoint" />
            <mxPoint as="offset" />
          </mxGeometry>
        </mxCell>
        <mxCell id="pf1ZcJ0mMMWe8gu6RdFf-25" value="/login" style="shape=folder;fontStyle=1;spacingTop=10;tabWidth=50;tabHeight=17;tabPosition=left;html=1;rounded=0;shadow=0;comic=0;labelBackgroundColor=none;strokeColor=#000000;strokeWidth=1;fillColor=#ffffff;fontFamily=Verdana;fontSize=10;fontColor=#000000;align=center;" vertex="1" parent="1">
          <mxGeometry x="350" y="800" width="112" height="75.5" as="geometry" />
        </mxCell>
        <mxCell id="pf1ZcJ0mMMWe8gu6RdFf-26" value="/admin" style="shape=folder;fontStyle=1;spacingTop=10;tabWidth=50;tabHeight=17;tabPosition=left;html=1;rounded=0;shadow=0;comic=0;labelBackgroundColor=none;strokeColor=#000000;strokeWidth=1;fillColor=#ffffff;fontFamily=Verdana;fontSize=10;fontColor=#000000;align=center;" vertex="1" parent="1">
          <mxGeometry x="350" y="900" width="112" height="75.5" as="geometry" />
        </mxCell>
        <mxCell id="pf1ZcJ0mMMWe8gu6RdFf-27" value="/image" style="shape=folder;fontStyle=1;spacingTop=10;tabWidth=50;tabHeight=17;tabPosition=left;html=1;rounded=0;shadow=0;comic=0;labelBackgroundColor=none;strokeColor=#000000;strokeWidth=1;fillColor=#ffffff;fontFamily=Verdana;fontSize=10;fontColor=#000000;align=center;" vertex="1" parent="1">
          <mxGeometry x="350" y="500.5" width="112" height="75.5" as="geometry" />
        </mxCell>
        <mxCell id="pf1ZcJ0mMMWe8gu6RdFf-28" value="/chapters" style="shape=folder;fontStyle=1;spacingTop=10;tabWidth=50;tabHeight=17;tabPosition=left;html=1;rounded=0;shadow=0;comic=0;labelBackgroundColor=none;strokeColor=#000000;strokeWidth=1;fillColor=#ffffff;fontFamily=Verdana;fontSize=10;fontColor=#000000;align=center;" vertex="1" parent="1">
          <mxGeometry x="350" y="600" width="112" height="75.5" as="geometry" />
        </mxCell>
        <mxCell id="pf1ZcJ0mMMWe8gu6RdFf-29" value="" style="endArrow=open;endSize=12;dashed=1;html=1;rounded=0;edgeStyle=orthogonalEdgeStyle;exitX=0;exitY=0.5;exitDx=0;exitDy=0;entryX=0;entryY=0;entryDx=112;entryDy=46.25;entryPerimeter=0;" edge="1" parent="1" source="pf1ZcJ0mMMWe8gu6RdFf-10" target="pf1ZcJ0mMMWe8gu6RdFf-25">
          <mxGeometry width="160" relative="1" as="geometry">
            <mxPoint x="590" y="610" as="sourcePoint" />
            <mxPoint x="472" y="656" as="targetPoint" />
            <mxPoint as="offset" />
          </mxGeometry>
        </mxCell>
        <mxCell id="pf1ZcJ0mMMWe8gu6RdFf-30" value="" style="endArrow=open;endSize=12;dashed=1;html=1;rounded=0;edgeStyle=orthogonalEdgeStyle;entryX=0;entryY=0;entryDx=112;entryDy=46.25;entryPerimeter=0;exitX=0;exitY=0.5;exitDx=0;exitDy=0;" edge="1" parent="1" source="pf1ZcJ0mMMWe8gu6RdFf-10" target="pf1ZcJ0mMMWe8gu6RdFf-26">
          <mxGeometry width="160" relative="1" as="geometry">
            <mxPoint x="600" y="620" as="sourcePoint" />
            <mxPoint x="482" y="666" as="targetPoint" />
            <mxPoint as="offset" />
          </mxGeometry>
        </mxCell>
      </root>
    </mxGraphModel>
  </diagram>
</mxfile>
